<svg xmlns="http://www.w3.org/2000/svg" viewBox="0 0 24 24"><defs><clipPath id="prefix__a"><path d="M10.894 4.274a.87.87 0 01.038 1.15l-.075.079-5.818 5.475H21.13a.87.87 0 01.102 1.734l-.102.006H5.086l5.77 5.431a.868.868 0 01.108 1.145l-.07.085a.871.871 0 01-1.145.107l-.084-.07-7.391-6.956a.87.87 0 01-.074-1.19l.073-.076 7.391-6.958a.87.87 0 011.23.038z"/></clipPath></defs><path d="M10.894 4.274a.87.87 0 01.038 1.15l-.075.079-5.818 5.475H21.13a.87.87 0 01.102 1.734l-.102.006H5.086l5.77 5.431a.868.868 0 01.108 1.145l-.07.085a.871.871 0 01-1.145.107l-.084-.07-7.391-6.956a.87.87 0 01-.074-1.19l.073-.076 7.391-6.958a.87.87 0 011.23.038z" fill="#fff"/><path clip-path="url(#prefix__a)" d="M0 24h24V0H0z" fill="#fff"/></svg>