<svg width="30" height="30" viewBox="0 0 45 45" fill="none" xmlns="http://www.w3.org/2000/svg">
<path d="M13.5175 24.2378V21.4703C13.5175 20.7323 12.8718 20.0865 12.1338 20.0865H1.98618C1.24817 20.0865 0.602417 20.7323 0.602417 21.4703V24.2378C0.602417 24.9758 1.24817 25.6216 1.98618 25.6216H12.1338C12.8718 25.6216 13.5175 24.9758 13.5175 24.2378Z" fill="white"/>
<path d="M15.2704 28.3891C14.7169 27.8356 13.8866 27.8356 13.3331 28.3891L6.13754 35.5847C5.58404 36.1382 5.58404 36.9685 6.13754 37.522L8.07481 39.4592C8.62831 40.0127 9.45857 40.0127 10.0121 39.4592L17.2076 32.2637C17.7611 31.7102 17.7611 30.8799 17.2076 30.3264L15.2704 28.3891Z" fill="white"/>
<path d="M30.2149 17.319C30.7684 17.8725 31.5987 17.8725 32.1522 17.319L39.3478 10.1235C39.9013 9.56996 39.9013 8.7397 39.3478 8.1862L37.4105 6.24893C36.857 5.69543 36.0267 5.69543 35.4732 6.24893L28.2777 13.3522C27.7242 13.9057 27.7242 14.736 28.2777 15.2895L30.2149 17.319Z" fill="white"/>
<path d="M10.0121 6.24893C9.45857 5.69543 8.62831 5.69543 8.07481 6.24893L6.13754 8.1862C5.58404 8.7397 5.58404 9.56996 6.13754 10.1235L13.3331 17.319C13.8866 17.8725 14.7169 17.8725 15.2704 17.319L17.2076 15.3818C17.7611 14.8283 17.7611 13.998 17.2076 13.4445L10.0121 6.24893Z" fill="white"/>
<path d="M32.2445 28.3891C31.691 27.8356 30.8607 27.8356 30.3072 28.3891L28.2777 30.3264C27.7242 30.8799 27.7242 31.7102 28.2777 32.2637L35.4732 39.4592C36.0267 40.0127 36.857 40.0127 37.4105 39.4592L39.3478 37.522C39.9013 36.9685 39.9013 36.1382 39.3478 35.5847L32.2445 28.3891Z" fill="white"/>
<path d="M24.1264 32.0792H21.3589C20.6209 32.0792 19.9751 32.7249 19.9751 33.4629V43.6105C19.9751 44.3485 20.6209 44.9943 21.3589 44.9943H24.1264C24.8644 44.9943 25.5101 44.3485 25.5101 43.6105V33.4629C25.5101 32.7249 24.8644 32.0792 24.1264 32.0792Z" fill="white"/>
<path d="M43.499 20.0865H33.3514C32.6134 20.0865 31.9677 20.7323 31.9677 21.4703V24.2378C31.9677 24.9758 32.6134 25.6216 33.3514 25.6216H43.499C44.237 25.6216 44.8828 24.9758 44.8828 24.2378V21.4703C44.8828 20.7323 44.237 20.0865 43.499 20.0865Z" fill="white"/>
<path d="M24.1264 0.713882H21.3589C20.6209 0.713882 19.9751 1.35964 19.9751 2.09764V12.2452C19.9751 12.9832 20.6209 13.629 21.3589 13.629H24.1264C24.8644 13.629 25.5101 12.9832 25.5101 12.2452V2.09764C25.5101 1.35964 24.8644 0.713882 24.1264 0.713882Z" fill="white"/>
</svg>
