<svg width="45" height="45" viewBox="0 0 45 45" fill="none" xmlns="http://www.w3.org/2000/svg">
<path d="M32.7334 11.0778C32.7334 16.9221 27.9999 21.6556 22.1556 21.6556C16.3113 21.6556 11.5778 16.9221 11.5778 11.0778C11.5778 5.23346 16.3113 0.5 22.1556 0.5C27.9999 0.5 32.7334 5.23346 32.7334 11.0778ZM0.5 38.7723C0.5 37.1143 1.32661 35.6249 2.76108 34.301C4.19896 32.9739 6.21404 31.8471 8.49083 30.935C13.0452 29.1105 18.5209 28.1945 22.1556 28.1945C25.7903 28.1945 31.266 29.1105 35.8204 30.935C38.0972 31.8471 40.1123 32.9739 41.5501 34.301C42.9846 35.6249 43.8112 37.1143 43.8112 38.7723V41.5418C43.8112 42.7888 42.7888 43.8112 41.5418 43.8112H2.76945C1.5224 43.8112 0.5 42.7888 0.5 41.5418V38.7723Z" fill="#3C3737" stroke="#3C3737"/>
</svg>
