<svg width="20" height="20" viewBox="0 0 57 76" fill="none" xmlns="http://www.w3.org/2000/svg">
<path d="M13.2751 19.6188C13.0979 19.6188 12.9539 19.7628 12.9539 19.9401V24.4469C12.9539 24.6228 13.0979 24.7682 13.2752 24.7682H42.9894C43.1376 24.7682 43.2567 24.6477 43.2567 24.4995V19.886C43.2567 19.7393 43.1376 19.6188 42.9894 19.6188H13.2751ZM5.65083 4.41415C2.54285 4.41415 0 6.95692 0 10.0649V69.3988C0 72.5068 2.54285 75.0483 5.65083 75.0483H50.5596C53.6677 75.0483 56.2106 72.5067 56.2106 69.3988V10.0649C56.2106 6.95692 53.6677 4.41407 50.5597 4.41407H47.053V1.42519C47.053 0.641282 46.2705 0 45.3134 0H45.3119C44.355 0 43.5724 0.641282 43.5724 1.42511V4.414H36.0019V1.42519C36.0019 0.641282 35.2194 0 34.2623 0C33.3051 0 32.5226 0.641282 32.5226 1.42511V4.414H24.9507V1.42519C24.9507 0.641282 24.1682 0 23.2111 0C22.2541 0 21.4715 0.641282 21.4715 1.42511V4.414H13.8996V1.42519C13.8996 0.641282 13.1171 0 12.16 0C11.203 0 10.4204 0.641282 10.4204 1.42511V4.414H5.65039L5.65083 4.41415ZM6.1023 9.22428H10.4209V11.3448C10.4209 12.1273 11.2034 12.7686 12.1605 12.7686C13.1174 12.7686 13.9 12.1273 13.9 11.3448V9.22428H21.4718V11.3448C21.4718 12.1273 22.2543 12.7686 23.2114 12.7686C24.1684 12.7686 24.951 12.1273 24.951 11.3448V9.22428H32.5229V11.3448C32.5229 12.1273 33.3054 12.7686 34.2625 12.7686C35.2195 12.7686 36.0021 12.1273 36.0021 11.3448V9.22428H43.5725V11.3448C43.5725 12.1273 44.355 12.7686 45.3121 12.7686H45.3136C46.2706 12.7686 47.0532 12.1273 47.0532 11.3448V9.22428H50.1072C50.9838 9.22428 51.6999 9.94728 51.6999 10.8185V68.6442C51.6999 69.514 50.9769 70.2369 50.1072 70.2369H6.10259C5.23279 70.2369 4.50986 69.5209 4.50986 68.6441V10.8185C4.50986 9.94178 5.2259 9.22428 6.10259 9.22428H6.1023ZM13.2753 65.2342H42.9895C43.1377 65.2342 43.2568 65.1137 43.2568 64.9656V60.352C43.2568 60.2053 43.1377 60.0834 42.9895 60.0834H13.2751C13.0979 60.0834 12.9539 60.2287 12.9539 60.406V64.9129C12.9539 65.0888 13.0979 65.2342 13.2752 65.2342L13.2753 65.2342ZM13.2753 55.1181H42.9895C43.1377 55.1181 43.2568 54.9976 43.2568 54.8494V50.2359C43.2568 50.0878 43.1377 49.9686 42.9895 49.9686H13.2751C13.0979 49.9686 12.9539 50.1127 12.9539 50.2899V54.7954C12.9539 54.9728 13.0979 55.1181 13.2752 55.1181H13.2753ZM13.2753 45.0005H42.9895C43.1377 45.0005 43.2568 44.8801 43.2568 44.7333V40.1197C43.2568 39.9717 43.1377 39.8511 42.9895 39.8511H13.2751C13.0979 39.8511 12.9539 39.9964 12.9539 40.1723V44.6792C12.9539 44.8566 13.0979 45.0005 13.2752 45.0005H13.2753ZM13.2753 34.8858H42.9895C43.1377 34.8858 43.2568 34.7653 43.2568 34.6171V30.005C43.2568 29.8569 43.1377 29.7364 42.9895 29.7364H13.2751C13.0979 29.7364 12.9539 29.8804 12.9539 30.0577V34.5645C12.9539 34.7419 13.0979 34.8858 13.2752 34.8858H13.2753Z"/>
</svg>
