<svg width="20" height="20" viewBox="0 0 57 57" fill="none" xmlns="http://www.w3.org/2000/svg">
<path d="M29.7705 30.9233L23.3047 37.361C23.0413 37.6223 22.8321 37.9332 22.6894 38.2758C22.5467 38.6184 22.4732 38.9858 22.4732 39.3569C22.4732 39.728 22.5467 40.0955 22.6894 40.438C22.8321 40.7806 23.0413 41.0915 23.3047 41.3529C23.5661 41.6163 23.877 41.8255 24.2196 41.9682C24.5621 42.1109 24.9296 42.1844 25.3007 42.1844C25.6718 42.1844 26.0392 42.1109 26.3818 41.9682C26.7244 41.8255 27.0353 41.6163 27.2966 41.3529L38.5414 30.1081C38.7973 29.8407 38.9979 29.5255 39.1317 29.1804C39.4129 28.496 39.4129 27.7283 39.1317 27.0439C38.9979 26.6988 38.7973 26.3836 38.5414 26.1162L27.2966 14.8715C27.0345 14.6094 26.7233 14.4014 26.3809 14.2596C26.0384 14.1177 25.6714 14.0447 25.3007 14.0447C24.93 14.0447 24.563 14.1177 24.2205 14.2596C23.878 14.4014 23.5669 14.6094 23.3047 14.8715C23.0426 15.1336 22.8347 15.4447 22.6929 15.7872C22.551 16.1297 22.478 16.4967 22.478 16.8674C22.478 17.2381 22.551 17.6051 22.6929 17.9476C22.8347 18.2901 23.0426 18.6012 23.3047 18.8634L29.7705 25.301H2.81119C2.06561 25.301 1.35058 25.5971 0.823378 26.1243C0.296178 26.6515 0 27.3666 0 28.1122C0 28.8577 0.296178 29.5728 0.823378 30.1C1.35058 30.6272 2.06561 30.9233 2.81119 30.9233H29.7705ZM28.1119 0.000280258C22.858 -0.0231757 17.7027 1.42615 13.2308 4.18387C8.75879 6.94158 5.14912 10.8973 2.81119 15.6024C2.47568 16.2734 2.42047 17.0502 2.65771 17.7619C2.89495 18.4736 3.40521 19.062 4.07622 19.3975C4.74724 19.733 5.52405 19.7882 6.23577 19.551C6.94749 19.3137 7.53582 18.8035 7.87133 18.1324C9.64853 14.5435 12.3519 11.4942 15.702 9.29965C19.0522 7.10515 22.9275 5.84507 26.9277 5.64962C30.9278 5.45417 34.9076 6.33045 38.4557 8.18789C42.0038 10.0453 44.9916 12.8166 47.1102 16.2152C49.2288 19.6138 50.4015 23.5166 50.5069 27.5201C50.6124 31.5236 49.6469 35.4826 47.7101 38.9881C45.7734 42.4936 42.9357 45.4183 39.4903 47.4599C36.0449 49.5016 32.1168 50.5862 28.1119 50.6017C23.9201 50.6198 19.8081 49.4557 16.2478 47.243C12.6875 45.0303 9.82329 41.8586 7.98377 38.0919C7.64826 37.4209 7.05994 36.9106 6.34822 36.6734C5.6365 36.4361 4.85969 36.4913 4.18867 36.8268C3.51765 37.1624 3.0074 37.7507 2.77016 38.4624C2.53292 39.1741 2.58813 39.9509 2.92363 40.6219C5.15242 45.1072 8.53904 48.9156 12.7332 51.6532C16.9273 54.3907 21.7767 55.9581 26.7797 56.1931C31.7827 56.4281 36.7576 55.3222 41.1899 52.9898C45.6222 50.6574 49.3509 47.1832 51.9903 42.9266C54.6297 38.67 56.084 33.7855 56.2027 28.7784C56.3214 23.7713 55.1002 18.8234 52.6655 14.4465C50.2308 10.0696 46.6709 6.42263 42.3541 3.88283C38.0373 1.34303 33.1204 0.00263168 28.1119 0.000280258Z"/>
</svg>
