<svg width="20" height="20" viewBox="0 0 57 65" fill="none" xmlns="http://www.w3.org/2000/svg">
<path d="M50.188 8.03008H44.1654V1.50564C44.1654 0.67415 43.4913 0 42.6598 0H37.641C36.8095 0 36.1354 0.67415 36.1354 1.50564V8.03008H20.0752V1.50564C20.0752 0.67415 19.401 0 18.5696 0H13.5508C12.7193 0 12.0451 0.67415 12.0451 1.50564V8.03008H6.02256C2.69635 8.03008 0 10.7264 0 14.0526V58.2181C0 61.5443 2.69635 64.2406 6.02256 64.2406H50.188C53.5142 64.2406 56.2106 61.5443 56.2106 58.2181V14.0526C56.2106 10.7264 53.5142 8.03008 50.188 8.03008ZM49.4352 58.2181H6.77538C6.57572 58.2181 6.38424 58.1388 6.24306 57.9976C6.10187 57.8564 6.02256 57.6649 6.02256 57.4653V20.0752H50.188V57.4653C50.188 57.6649 50.1087 57.8564 49.9675 57.9976C49.8263 58.1388 49.6348 58.2181 49.4352 58.2181ZM42.8042 33.0425L24.9487 50.755C24.3584 51.3406 23.405 51.3368 22.8194 50.7465L13.3977 41.2485C12.8121 40.6582 12.8159 39.7049 13.4062 39.1192L16.2568 36.2916C16.8471 35.706 17.8004 35.7098 18.386 36.3002L23.9197 41.8787L37.8559 28.0543C38.4463 27.4688 39.3996 27.4725 39.9853 28.0629L42.8129 30.9133C43.3984 31.5036 43.3946 32.457 42.8042 33.0425Z" />
</svg>
